<svg width="17" height="17" viewBox="0 0 17 17" fill="none" xmlns="http://www.w3.org/2000/svg">
<path d="M17 8.50958L15.545 6.61218L15.8705 4.25479L13.6498 3.37317L12.7691 1.14994L10.4144 1.47576L8.5 0L6.60473 1.4566L4.25 1.13078L3.36937 3.354L1.14865 4.23563L1.4741 6.59301L0 8.50958L1.45495 10.407L1.1295 12.7644L3.35023 13.646L4.23086 15.8692L6.58559 15.5434L8.48086 17L10.3761 15.5434L12.7309 15.8692L13.6115 13.646L15.8322 12.7452L15.5068 10.3878L17 8.50958ZM7.81081 11.2694L4.97748 8.93123L5.59009 8.18377L7.69595 9.90868L11.295 5.74972L12.0225 6.38219L7.81081 11.2694Z" fill="#B91A1A"/>
</svg>
